<svg id="Capa_1" enable-background="new 0 0 512 512" viewBox="0 0 512 512" xmlns="http://www.w3.org/2000/svg"><g><path d="m256 92c-49.626 0-90 40.374-90 90s40.374 90 90 90 90-40.374 90-90-40.374-90-90-90zm0 150c-33.084 0-60-26.916-60-60s26.916-60 60-60 60 26.916 60 60-26.916 60-60 60z" fill="#000000" style="fill: rgb(255, 255, 255);"></path><path d="m256 0c-99.253 0-180 80.748-180 180 0 99.262 107.59 248.998 168.696 319.039l11.304 12.961 11.304-12.961c62.665-71.828 168.696-220.604 168.696-319.039 0-99.252-80.748-180-180-180zm0 465.822c-36.692-44.747-150-190.655-150-285.822 0-82.71 67.29-150 150-150s150 67.29 150 150c0 95.167-113.309 241.075-150 285.822z" fill="#000000" style="fill: rgb(255, 255, 255);"></path></g></svg>